<svg width="18" height="14" viewBox="0 0 18 14" fill="none" xmlns="http://www.w3.org/2000/svg">
<path d="M6.00006 11.4186L2.50006 7.75579C2.40853 7.65884 2.29953 7.58187 2.17937 7.52934C2.05921 7.4768 1.93028 7.44975 1.80006 7.44975C1.66983 7.44975 1.5409 7.4768 1.42074 7.52934C1.30058 7.58187 1.19158 7.65884 1.10006 7.75579C1.00742 7.85157 0.933865 7.96564 0.883666 8.09139C0.833466 8.21714 0.807617 8.35207 0.807617 8.48835C0.807617 8.62463 0.833466 8.75956 0.883666 8.88531C0.933865 9.01106 1.00742 9.12513 1.10006 9.22091L5.29006 13.6058C5.68006 14.0139 6.31006 14.0139 6.70006 13.6058L17.3001 2.52323C17.3927 2.42745 17.4662 2.31338 17.5164 2.18763C17.5666 2.06188 17.5925 1.92696 17.5925 1.79067C17.5925 1.65439 17.5666 1.51947 17.5164 1.39372C17.4662 1.26797 17.3927 1.1539 17.3001 1.05812C17.2085 0.961168 17.0995 0.884195 16.9794 0.831661C16.8592 0.779126 16.7303 0.752075 16.6001 0.752075C16.4698 0.752075 16.3409 0.779126 16.2207 0.831661C16.1006 0.884195 15.9916 0.961168 15.9001 1.05812L6.00006 11.4186Z" fill="#00BFA6"/>
</svg>
